<?xml version="1.0" ?>
<!-- Uploaded to: SVG Repo, www.svgrepo.com, Generator: SVG Repo Mixer Tools -->
<svg fill="#000000" width="800px" height="800px" viewBox="0 0 512 512" version="1.1" xml:space="preserve" xmlns="http://www.w3.org/2000/svg" xmlns:xlink="http://www.w3.org/1999/xlink">
<g id="_x31_6_x2C__Bug_x2C__scan_x2C__search_x2C__error_x2C__virus">
<g id="XMLID_858_">
<g id="XMLID_869_">
<g id="XMLID_115_">
<path d="M220.058,191.787c-2.354,0-4.451-1.67-4.907-4.067c-0.329-1.729-0.495-3.487-0.495-5.225      c0-15.375,12.508-27.883,27.883-27.883c15.375,0,27.882,12.508,27.882,27.883c0,1.735-0.166,3.492-0.495,5.223      c-0.514,2.714-3.135,4.493-5.844,3.981c-2.713-0.515-4.495-3.131-3.98-5.844c0.212-1.118,0.319-2.249,0.319-3.36      c0-9.861-8.022-17.883-17.882-17.883c-9.861,0-17.883,8.022-17.883,17.883c0,1.113,0.107,2.243,0.319,3.358      c0.516,2.713-1.266,5.33-3.979,5.846C220.682,191.758,220.368,191.787,220.058,191.787z" id="XMLID_530_"/>
</g>
<g id="XMLID_114_">
<path d="M242.539,309.535c-36.404,0-66.021-29.616-66.021-66.021c0-36.404,29.617-66.021,66.021-66.021      s66.02,29.617,66.02,66.021C308.559,279.919,278.942,309.535,242.539,309.535z M242.539,187.494      c-30.89,0-56.021,25.131-56.021,56.021s25.131,56.021,56.021,56.021c30.889,0,56.02-25.131,56.02-56.021      S273.428,187.494,242.539,187.494z" id="XMLID_527_"/>
</g>
<g id="XMLID_113_">
<path d="M242.539,309.536c-2.761,0-5-2.238-5-5v-72.462c0-2.761,2.239-5,5-5s5,2.239,5,5v72.462      C247.539,307.298,245.3,309.536,242.539,309.536z" id="XMLID_526_"/>
</g>
<g id="XMLID_112_">
<path d="M259.76,172.438c-0.795,0-1.601-0.19-2.351-0.59c-2.436-1.3-3.357-4.329-2.057-6.765l10.47-19.619      c1.301-2.438,4.33-3.355,6.766-2.057c2.436,1.3,3.356,4.329,2.057,6.765l-10.47,19.619      C263.274,171.478,261.546,172.438,259.76,172.438z" id="XMLID_525_"/>
</g>
<g id="XMLID_111_">
<path d="M225.298,172.454c-1.787,0-3.515-0.96-4.416-2.647l-10.471-19.619c-1.3-2.436-0.379-5.465,2.057-6.765      c2.435-1.301,5.464-0.379,6.765,2.057l10.471,19.619c1.3,2.436,0.379,5.465-2.057,6.765      C226.898,172.264,226.092,172.454,225.298,172.454z" id="XMLID_524_"/>
</g>
<g id="Layer_1_6_"/>
<g id="XMLID_110_">
<path d="M321.069,248.515h-17.511c-2.762,0-5-2.239-5-5s2.238-5,5-5h17.511c2.762,0,5,2.239,5,5      S323.831,248.515,321.069,248.515z" id="XMLID_522_"/>
</g>
<g id="XMLID_109_">
<path d="M290.208,210.768c-1.521,0-3.021-0.69-4.004-2c-1.657-2.209-1.209-5.343,1-7l24.691-18.519      c2.21-1.656,5.344-1.209,7,1c1.657,2.209,1.209,5.343-1,7l-24.691,18.519C292.305,210.442,291.252,210.768,290.208,210.768z" id="XMLID_521_"/>
</g>
<g id="XMLID_108_">
<path d="M321.067,303.364c-0.617,0-1.246-0.115-1.854-0.358l-30.865-12.346      c-2.564-1.025-3.812-3.936-2.786-6.499c1.025-2.563,3.937-3.81,6.499-2.786l30.865,12.346c2.564,1.025,3.812,3.936,2.786,6.499      C324.93,302.175,323.052,303.364,321.067,303.364z" id="XMLID_520_"/>
</g>
<g id="XMLID_107_">
<path d="M178.08,248.515h-17.51c-2.761,0-5-2.239-5-5s2.239-5,5-5h17.51c2.761,0,5,2.239,5,5      S180.841,248.515,178.08,248.515z" id="XMLID_519_"/>
</g>
<g id="XMLID_106_">
<path d="M191.431,210.768c-1.044,0-2.097-0.326-2.996-1l-24.692-18.519c-2.209-1.657-2.657-4.791-1-7      c1.658-2.209,4.792-2.658,7-1l24.692,18.519c2.209,1.657,2.657,4.791,1,7C194.453,210.077,192.951,210.768,191.431,210.768z" id="XMLID_518_"/>
</g>
<g id="XMLID_105_">
<path d="M160.572,303.364c-1.984,0-3.862-1.189-4.644-3.145c-1.025-2.563,0.222-5.474,2.786-6.499      l30.865-12.346c2.563-1.024,5.473,0.222,6.5,2.786c1.025,2.563-0.222,5.474-2.786,6.499l-30.865,12.346      C161.818,303.249,161.19,303.364,160.572,303.364z" id="XMLID_517_"/>
</g>
</g>
<g id="XMLID_104_">
<path d="M423.474,485.645c-16.648,0-32.301-6.483-44.073-18.257l-56.707-56.707c-1.953-1.952-1.953-5.118,0-7.07     c1.951-1.953,5.119-1.953,7.07,0l56.707,56.707c9.884,9.884,23.025,15.327,37.003,15.327s27.119-5.443,37.003-15.327     s15.327-23.025,15.327-37.003s-5.442-27.119-15.326-37.003l-56.707-56.707c-1.953-1.952-1.953-5.118,0-7.07     c1.951-1.953,5.119-1.953,7.07,0l56.707,56.707c24.303,24.302,24.303,63.845,0,88.146     C455.775,479.161,440.123,485.645,423.474,485.645z" id="XMLID_516_"/>
</g>
<g id="XMLID_103_">
<path d="M234.294,434.919c-51.44,0-102.881-19.581-142.042-58.742c-78.322-78.322-78.322-205.762,0-284.084     s205.762-78.322,284.084,0s78.322,205.762,0,284.084C337.175,415.338,285.734,434.919,234.294,434.919z M234.294,43.347     c-48.879,0-97.759,18.605-134.971,55.817c-74.423,74.423-74.423,195.519,0,269.942c74.423,74.421,195.519,74.421,269.942,0     c74.423-74.424,74.423-195.519,0-269.942C332.054,61.952,283.174,43.347,234.294,43.347z" id="XMLID_513_"/>
</g>
<g id="XMLID_102_">
<path d="M234.294,375.587c-36.24,0-72.479-13.795-100.068-41.384c-55.177-55.178-55.177-144.959,0-200.137     c55.178-55.176,144.959-55.177,200.137,0l0,0c55.178,55.178,55.178,144.959,0,200.137     C306.773,361.792,270.533,375.587,234.294,375.587z M234.294,102.679c-33.679,0-67.358,12.82-92.997,38.459     c-51.279,51.278-51.279,134.715,0,185.995c51.279,51.278,134.715,51.278,185.995,0c51.278-51.28,51.278-134.717,0-185.995     C301.652,115.499,267.973,102.679,234.294,102.679z" id="XMLID_510_"/>
</g>
</g>
</g>
<g id="Layer_1"/>
</svg>